<?xml version="1.0" encoding="UTF-8"?>
<svg width="22px" height="17px" viewBox="0 0 22 17" version="1.1" xmlns="http://www.w3.org/2000/svg" xmlns:xlink="http://www.w3.org/1999/xlink">
    <!-- Generator: Sketch 46.2 (44496) - http://www.bohemiancoding.com/sketch -->
    <title>icon_tool_cvv__m__white</title>
    <desc>Created with Sketch.</desc>
    <defs></defs>
    <g id="Page-1" stroke="none" stroke-width="1" fill="none" fill-rule="evenodd">
        <g id="main" transform="translate(-55.000000, -336.000000)">
            <g id="icon_tool_cvv__m__white" transform="translate(54.000000, 333.000000)">
                <rect id="ph" x="0" y="0" width="24" height="24"></rect>
                <path d="M2,17.9998938 C2,18.5563689 2.44247385,19 2.991155,19 L21.008845,19 C21.556274,19 22,18.5540013 22,17.9998938 L22,5.00010618 C22,4.44363109 21.5575261,4 21.008845,4 L2.991155,4 C2.44372603,4 2,4.44599874 2,5.00010618 L2,17.9998938 Z M2.991155,3 L21.008845,3 C22.1085295,3 23,3.89005841 23,5.00010618 L23,17.9998938 C23,19.104522 22.1103261,20 21.008845,20 L2.991155,20 C1.89147046,20 1,19.1099416 1,17.9998938 L1,5.00010618 C1,3.89547804 1.88967395,3 2.991155,3 Z" id="Rectangle-2" fill="#0F2338" fill-rule="nonzero"></path>
                <path d="M2,8 L22,8 L22,12 L2,12 L2,8 Z M15,9 L15,11 L19,11 L19,9 L15,9 Z" id="Combined-Shape" fill="#0F2338" opacity="0.300000012"></path>
            </g>
        </g>
    </g>
</svg>