<?xml version="1.0" encoding="UTF-8"?>
<svg width="24px" height="17px" viewBox="0 0 24 17" version="1.1" xmlns="http://www.w3.org/2000/svg" xmlns:xlink="http://www.w3.org/1999/xlink">
    <!-- Generator: Sketch 46.2 (44496) - http://www.bohemiancoding.com/sketch -->
    <title>icon_tool_out__m__white</title>
    <desc>Created with Sketch.</desc>
    <defs></defs>
    <g id="Page-1" stroke="none" stroke-width="1" fill="none" fill-rule="evenodd">
        <g id="main" transform="translate(-459.000000, -526.000000)">
            <g id="icon_tool_out__m__white" transform="translate(471.000000, 534.000000) rotate(-270.000000) translate(-471.000000, -534.000000) translate(459.000000, 522.000000)">
                <g id="a1" opacity="0.4"></g>
                <rect id="Rectangle-path" x="0" y="0" width="24" height="24"></rect>
                <path d="M18.5,9 L16,9 L16,10 L18.5,10 C19.327,10 20,10.673 20,11.5 L20,21.5 C20,22.327 19.327,23 18.5,23 L6.5,23 C5.673,23 5,22.327 5,21.5 L5,11.5 C5,10.673 5.673,10 6.5,10 L9,10 L9,9 L6.5,9 C5.121,9 4,10.121 4,11.5 L4,21.5 C4,22.879 5.121,24 6.5,24 L18.5,24 C19.879,24 21,22.879 21,21.5 L21,11.5 C21,10.121 19.879,9 18.5,9 L18.5,9 Z" id="Shape" fill="#0A1E32"></path>
                <polygon id="Shape" fill="#0A1E32" points="13 16 13 2.707 16.146 5.854 16.854 5.146 12.5 0.793 8.146 5.146 8.854 5.854 12 2.707 12 16"></polygon>
            </g>
        </g>
    </g>
</svg>