<?xml version="1.0" encoding="UTF-8"?>
<svg width="40px" height="28px" viewBox="0 0 40 28" version="1.1" xmlns="http://www.w3.org/2000/svg" xmlns:xlink="http://www.w3.org/1999/xlink">
    <!-- Generator: Sketch 46.2 (44496) - http://www.bohemiancoding.com/sketch -->
    <title>pick-banknotes</title>
    <desc>Created with Sketch.</desc>
    <defs>
        <rect id="path-1" x="0" y="0" width="34" height="2"></rect>
        <rect id="path-2" x="32" y="2" width="2" height="4"></rect>
        <rect id="path-3" x="0" y="2" width="2" height="20"></rect>
        <rect id="path-4" x="2" y="20" width="4" height="2"></rect>
    </defs>
    <g id="Page-1" stroke="none" stroke-width="1" fill="none" fill-rule="evenodd" opacity="0.800000012">
        <g id="cash_01" transform="translate(-715.000000, -52.000000)">
            <g id="pick-banknotes" transform="translate(715.000000, 52.000000)">
                <path d="M8,26 L38,26 L38,8 L8,8 L8,26 Z M6,6 L40,6 L40,28 L6,28 L6,6 Z" id="Rectangle-49" fill="#0A1E32" fill-rule="nonzero"></path>
                <path d="M23.1314588,21.9792236 C25.8928826,21.9792236 28.1314588,19.7406473 28.1314588,16.9792236 C28.1314588,14.2177998 25.8928826,11.9792236 23.1314588,11.9792236 C20.3700351,11.9792236 18.1314588,14.2177998 18.1314588,16.9792236 C18.1314588,19.7406473 20.3700351,21.9792236 23.1314588,21.9792236 Z" id="Oval-9" fill="#0A1E32" opacity="0.300000012"></path>
                <g id="Rectangle-10">
                    <use fill="#D8D8D8" fill-rule="evenodd" xlink:href="#path-1"></use>
                    <rect stroke="#0A1E32" stroke-width="1" x="0.5" y="0.5" width="33" height="1"></rect>
                </g>
                <g id="Rectangle-11">
                    <use fill="#D8D8D8" fill-rule="evenodd" xlink:href="#path-2"></use>
                    <rect stroke="#0A1E32" stroke-width="1" x="32.5" y="2.5" width="1" height="3"></rect>
                </g>
                <g id="Rectangle-12">
                    <use fill="#D8D8D8" fill-rule="evenodd" xlink:href="#path-3"></use>
                    <rect stroke="#0A1E32" stroke-width="1" x="0.5" y="2.5" width="1" height="19"></rect>
                </g>
                <g id="Rectangle-13">
                    <use fill="#D8D8D8" fill-rule="evenodd" xlink:href="#path-4"></use>
                    <rect stroke="#0A1E32" stroke-width="1" x="2.5" y="20.5" width="3" height="1"></rect>
                </g>
            </g>
        </g>
    </g>
</svg>